<svg width="26" height="26" viewBox="0 0 26 26" fill="none" xmlns="http://www.w3.org/2000/svg">
<g clip-path="url(#clip0_8_19)">
<path d="M15.2964 25.2294C15.1723 25.2344 15.093 25.2443 15.0136 25.2443C13.3167 25.2443 11.6248 25.2393 9.92799 25.2493C9.68983 25.2493 9.62533 25.1848 9.62533 24.9466C9.63029 20.9972 9.6303 17.0429 9.6303 13.0935C9.6303 12.9893 9.6303 12.8851 9.6303 12.7511C8.70745 12.7511 7.80941 12.7511 6.89648 12.7511C6.89648 11.3421 6.89648 9.9578 6.89648 8.53383C6.99075 8.53383 7.08006 8.53383 7.16441 8.53383C7.90864 8.53383 8.65287 8.52887 9.3971 8.5388C9.58564 8.5388 9.63526 8.48422 9.63526 8.30064C9.62533 7.19422 9.62533 6.08283 9.63526 4.97641C9.64022 4.20241 9.76426 3.44825 10.1215 2.74868C10.6325 1.76133 11.4413 1.12129 12.4633 0.724367C13.2969 0.396906 14.1751 0.277829 15.0582 0.262944C16.4971 0.243098 17.9359 0.253021 19.3748 0.248059C19.5087 0.248059 19.6179 0.243098 19.6179 0.431636C19.6129 1.79606 19.6129 3.16048 19.6129 4.52491C19.6129 4.53979 19.608 4.55468 19.5881 4.61918C19.5038 4.61918 19.4095 4.61918 19.3152 4.61918C18.4221 4.61918 17.5291 4.61422 16.636 4.61918C16.12 4.61918 15.7032 4.82756 15.4403 5.27906C15.3609 5.41302 15.3113 5.58668 15.3113 5.74545C15.2964 6.58891 15.3113 7.43237 15.3013 8.27584C15.3013 8.4743 15.3609 8.52887 15.5544 8.52887C16.7948 8.51895 18.0351 8.52391 19.2755 8.52391C19.3748 8.52391 19.469 8.52391 19.6377 8.52391C19.4641 9.94291 19.2954 11.3321 19.1217 12.7363C17.8317 12.7363 16.5765 12.7363 15.2964 12.7363C15.2964 16.9089 15.2964 21.0568 15.2964 25.2294Z" fill="black"/>
</g>
<defs>
<clipPath id="clip0_8_19">
<rect width="25.4031" height="25.4031" fill="white"/>
</clipPath>
</defs>
</svg>
