<svg width="49" height="60" viewBox="0 0 49 60" fill="none" xmlns="http://www.w3.org/2000/svg">
<path d="M48.1833 25.6627C48.1833 26.3959 47.7749 27.1291 47.7749 27.8624C47.7749 28.229 47.775 28.5955 47.3667 28.9621C47.3667 29.3288 46.9583 29.6954 46.9583 30.062C41.65 44.3598 24.0916 59.0242 24.0916 59.0242C24.0916 59.0242 7.34998 45.093 1.63331 30.7952C1.63331 30.7952 1.63331 30.7953 1.63331 30.4287C1.22498 29.3288 0.816592 28.5956 0.816592 27.4957C0.816592 26.7625 0.408358 26.3959 0.408358 25.6627C2.49147e-05 24.5629 0 23.0964 0 21.9966C0 9.89846 11.025 0 24.5 0C37.975 0 49 9.89846 49 21.9966C48.5917 23.463 48.5916 24.5629 48.1833 25.6627ZM24.0916 11.3649C17.15 11.3649 11.8416 16.1309 11.8416 22.3632C11.8416 28.5956 17.15 33.3615 24.0916 33.3615C31.0333 33.3615 36.3416 28.5956 36.3416 22.3632C36.3416 16.1309 31.0333 11.3649 24.0916 11.3649Z" fill="white"/>
</svg>
