<svg width="35" height="47" viewBox="0 0 35 47" fill="none" xmlns="http://www.w3.org/2000/svg">
<path d="M34.4166 20.3459C34.4166 20.9272 34.1249 21.5085 34.1249 22.0898C34.1249 22.3805 34.125 22.6711 33.8334 22.9618C33.8334 23.2524 33.5417 23.5431 33.5417 23.8338C29.75 35.1694 17.2083 46.7956 17.2083 46.7956C17.2083 46.7956 5.24998 35.7506 1.16665 24.415C1.16665 24.415 1.16665 24.4151 1.16665 24.1245C0.874982 23.2525 0.58328 22.6711 0.58328 21.7992C0.58328 21.2179 0.291684 20.9272 0.291684 20.3459C1.77962e-05 19.4739 0 18.3113 0 17.4393C0 7.8477 7.875 0 17.5 0C27.125 0 35 7.8477 35 17.4393C34.7083 18.602 34.7083 19.4739 34.4166 20.3459ZM17.2083 9.01034C12.25 9.01034 8.45832 12.7889 8.45832 17.73C8.45832 22.6711 12.25 26.4497 17.2083 26.4497C22.1667 26.4497 25.9583 22.6711 25.9583 17.73C25.9583 12.7889 22.1667 9.01034 17.2083 9.01034Z" fill="#03BC70"/>
</svg>
