<svg width="27" height="26" viewBox="0 0 27 26" fill="none" xmlns="http://www.w3.org/2000/svg">
<g clip-path="url(#clip0_8_14)">
<path d="M25.8543 12.7512C25.8543 14.4778 25.8196 16.2094 25.8642 17.936C25.9386 20.9923 24.0185 23.354 21.5725 24.4058C20.5901 24.8276 19.5581 25.0508 18.4914 25.0508C15.1522 25.0558 11.8082 25.1005 8.46905 25.036C5.95354 24.9863 3.88458 23.9345 2.40108 21.8606C1.62212 20.769 1.25 19.5286 1.25 18.1841C1.25 14.6266 1.25 11.0742 1.25 7.51674C1.25 4.61424 2.66404 2.58497 5.17458 1.2652C6.26612 0.694621 7.45193 0.451505 8.68735 0.446544C11.9272 0.446544 15.1721 0.426698 18.412 0.456467C20.9275 0.476313 23.0262 1.43885 24.5742 3.46316C25.4375 4.59439 25.8543 5.89432 25.8543 7.32324C25.8543 9.12924 25.8543 10.9402 25.8543 12.7512ZM3.08081 12.7512C3.08081 14.5721 3.08081 16.388 3.08081 18.2089C3.08081 19.0226 3.26935 19.7866 3.69108 20.4763C4.7975 22.2873 6.46954 23.1704 8.54347 23.2051C11.8727 23.2548 15.2068 23.225 18.541 23.2151C19.3596 23.2151 20.1535 23.0464 20.8927 22.6941C22.9071 21.7316 24.0334 20.1984 24.0235 17.8963C24.0036 14.3736 24.0185 10.8509 24.0185 7.3282C24.0185 6.33093 23.7357 5.41801 23.1453 4.61424C22.0041 3.0712 20.4264 2.31208 18.541 2.29224C15.2167 2.25255 11.8925 2.27735 8.56828 2.28231C7.85878 2.28231 7.17408 2.4262 6.50924 2.67428C4.68339 3.35401 2.98654 5.07566 3.06592 7.61101C3.12546 9.32771 3.08081 11.0394 3.08081 12.7512Z" fill="black"/>
<path d="M13.5795 18.0104C10.3793 18.0104 7.79928 15.4602 7.79432 12.2848C7.78936 9.15904 10.3892 6.59888 13.5696 6.59888C16.7598 6.59392 19.3498 9.14912 19.3547 12.2997C19.3547 15.4453 16.7697 18.0055 13.5795 18.0104ZM13.5795 16.1747C15.7576 16.1747 17.5239 14.4332 17.5189 12.2898C17.514 10.1662 15.7477 8.42969 13.5795 8.42969C11.4014 8.42969 9.62513 10.1613 9.62513 12.2997C9.63009 14.4431 11.4014 16.1796 13.5795 16.1747Z" fill="black"/>
<path d="M20.0245 4.8623C20.6943 4.8623 21.2401 5.43288 21.2401 6.13246C21.2351 6.83204 20.6844 7.39765 20.0146 7.39269C19.3547 7.38773 18.8139 6.82211 18.8139 6.13742C18.8089 5.43784 19.3547 4.8623 20.0245 4.8623Z" fill="black"/>
</g>
<defs>
<clipPath id="clip0_8_14">
<rect width="25.4031" height="25.4031" fill="white" transform="translate(0.798462)"/>
</clipPath>
</defs>
</svg>
