<svg width="68" height="68" viewBox="0 0 68 68" fill="none" xmlns="http://www.w3.org/2000/svg">
<path d="M61.4315 42.0106L52.8859 36.4192L56.1762 30.3871C56.9697 28.8809 57.3855 27.2044 57.3877 25.502V15.9395C57.3943 13.2507 56.6155 10.6185 55.1471 8.36616C53.6786 6.1138 51.5843 4.33931 49.1214 3.26058C46.6585 2.18185 43.9342 1.84585 41.283 2.29384C38.6318 2.74183 36.1692 3.9543 34.1974 5.78238L37.0858 8.90042C38.4521 7.6372 40.1572 6.80009 41.9922 6.49173C43.8272 6.18337 45.7123 6.41716 47.4164 7.16444C49.1205 7.91171 50.5695 9.14 51.5857 10.6987C52.602 12.2574 53.1414 14.0788 53.1377 15.9395V25.502C53.1373 26.4933 52.8998 27.4702 52.4451 28.3511L47.2765 37.827L59.1045 45.5665C59.8853 46.0775 60.526 46.7755 60.9684 47.597C61.4108 48.4186 61.6409 49.3377 61.6377 50.2708V57.377H52.0752V61.627H65.8877V50.2707C65.8919 48.6316 65.4866 47.0174 64.7083 45.5749C63.9301 44.1323 62.8037 42.9071 61.4315 42.0106Z" fill="white"/>
<path d="M42.3062 46.2607L33.7607 40.6693L37.0508 34.6372C37.8444 33.131 38.2602 31.4545 38.2623 29.7521V20.1896C38.2596 16.5242 36.8031 13.0097 34.2123 10.4169C31.6216 7.82411 28.1081 6.36486 24.4428 6.35927C16.8304 6.35927 10.6374 12.5636 10.6374 20.1896V29.7521C10.6292 31.4538 11.0405 33.1312 11.8347 34.6362L15.1427 40.701L6.64687 46.2607C5.27626 47.1558 4.15086 48.379 3.37281 49.8192C2.59475 51.2595 2.18867 52.8713 2.19141 54.5083L2.125 65.8771H46.7623V54.5208C46.7666 52.8817 46.3612 51.2675 45.583 49.825C44.8048 48.3824 43.6784 47.1572 42.3062 46.2607ZM42.5123 61.6271H6.3997L6.44087 54.5208C6.43766 53.5877 6.66771 52.6686 7.11011 51.847C7.5525 51.0254 8.19321 50.3274 8.97401 49.8164L20.7521 42.1095L15.5656 32.6012C15.116 31.719 14.8835 30.7422 14.8874 29.7521V20.1896C14.8874 17.6534 15.8948 15.2212 17.6881 13.4279C19.4815 11.6345 21.9137 10.6271 24.4499 10.6271C26.986 10.6271 29.4182 11.6345 31.2116 13.4279C33.0049 15.2212 34.0124 17.6534 34.0124 20.1896V29.7521C34.0119 30.7434 33.7745 31.7203 33.3197 32.6012L28.1512 42.0771L39.9792 49.8166C40.76 50.3275 41.4007 51.0255 41.8431 51.8471C42.2855 52.6687 42.5155 53.5878 42.5123 54.5209V61.6271Z" fill="white"/>
</svg>
