<svg width="49" height="49" viewBox="0 0 49 49" fill="none" xmlns="http://www.w3.org/2000/svg">
<path d="M9.95312 4.59375V44.4062C9.95404 45.2182 10.277 45.9966 10.8511 46.5708C11.4253 47.1449 12.2037 47.4678 13.0156 47.4688H36.75C37.5619 47.4678 38.3404 47.1449 38.9145 46.5708C39.4886 45.9966 39.8116 45.2182 39.8125 44.4062V4.59375C39.8116 3.7818 39.4886 3.00338 38.9145 2.42924C38.3404 1.85511 37.5619 1.53216 36.75 1.53125H13.0156C12.2037 1.53216 11.4253 1.85511 10.8511 2.42924C10.277 3.00338 9.95404 3.7818 9.95312 4.59375ZM36.752 44.4062H13.0156V4.59375H36.75L36.752 44.4062Z" fill="#03BC70"/>
<path d="M29.8594 7.65625H20.6719V10.7188H29.8594V7.65625Z" fill="#03BC70"/>
<path d="M26.7969 37.5156H23.7344V40.5781H26.7969V37.5156Z" fill="#03BC70"/>
</svg>
