<svg width="22" height="22" viewBox="0 0 22 22" fill="none" xmlns="http://www.w3.org/2000/svg">
<g clip-path="url(#clip0_8_35)">
<path d="M21.901 17.5351L21.7915 17.2052C21.5322 16.4343 20.6821 15.6304 19.9012 15.4186L17.0108 14.629C16.227 14.4158 15.1089 14.7025 14.5355 15.2759L13.4894 16.322C9.68778 15.2947 6.70672 12.3136 5.68085 8.5127L6.72696 7.46659C7.30043 6.89311 7.58712 5.7765 7.37388 4.99269L6.58573 2.10094C6.37249 1.31856 5.56705 0.468493 4.79768 0.212002L4.46774 0.10107C3.69688 -0.155421 2.59752 0.103974 2.02409 0.677401L0.459329 2.24359C0.179786 2.52166 0.00112279 3.317 0.00112279 3.3199C-0.0536056 8.28788 1.89439 13.0743 5.40854 16.5885C8.91407 20.094 13.6825 22.0391 18.6361 21.9974C18.662 21.9974 19.4804 21.8216 19.7599 21.5435L21.3247 19.9787C21.8981 19.4053 22.1575 18.306 21.901 17.5351Z" fill="black"/>
</g>
<defs>
<clipPath id="clip0_8_35">
<rect width="22" height="22" fill="white"/>
</clipPath>
</defs>
</svg>
