<svg width="26" height="26" viewBox="0 0 26 26" fill="none" xmlns="http://www.w3.org/2000/svg">
<g clip-path="url(#clip0_8_12)">
<path d="M13.8606 0.0214339C15.2458 0 16.6232 0.0127016 17.9989 0C18.0823 1.62024 18.6649 3.27065 19.8509 4.41617C21.0346 5.59027 22.7088 6.1277 24.3378 6.30949V10.5717C22.8112 10.5216 21.2775 10.2041 19.8922 9.5468C19.2889 9.27372 18.7269 8.92205 18.1767 8.56243C18.1696 11.6553 18.1894 14.7441 18.1569 17.8242C18.0743 19.304 17.5861 20.7766 16.7256 21.9959C15.3411 24.0258 12.9381 25.3491 10.4701 25.3904C8.95619 25.4769 7.44391 25.0641 6.15391 24.3036C4.01608 23.043 2.51174 20.7353 2.29264 18.2585C2.26723 17.729 2.2585 17.2003 2.27994 16.6835C2.47046 14.6695 3.46674 12.7428 5.01315 11.4322C6.76596 9.90562 9.22133 9.17846 11.5203 9.60872C11.5417 11.1766 11.479 12.7428 11.479 14.3107C10.4288 13.9709 9.20149 14.0662 8.2838 14.7036C7.61379 15.1379 7.10494 15.8031 6.83979 16.5557C6.62069 17.0923 6.6834 17.6885 6.69611 18.2585C6.94776 19.9954 8.61801 21.4553 10.401 21.2973C11.583 21.2846 12.7158 20.5987 13.3319 19.5945C13.5311 19.2428 13.7542 18.8832 13.7661 18.4696C13.8701 16.5763 13.8288 14.6909 13.8415 12.7976C13.8503 8.53068 13.8288 4.27566 13.8614 0.0222277L13.8606 0.0214339Z" fill="black"/>
</g>
<defs>
<clipPath id="clip0_8_12">
<rect width="25.4031" height="25.4031" fill="white" transform="translate(0.596924)"/>
</clipPath>
</defs>
</svg>
